#!OML:ASF F:\VICON\USERDATA\INSTALL\rory3\rory3.ASF
:FULLY-SPECIFIED
:DEGREES
10
root 0.45973760444668815 17.554799226896332 -13.884089352706498 5.495982815759242 0.5764206246200818 -1.7977110950619115
lfemur -9.283904779334865 8.668725234268683 -17.245703756838196
ltibia 15.71940685623992
lfoot -10.72860017774512 2.853486266830185
ltoes -7.0769049154055335
rfemur -10.705405113911494 -3.5627567824597968 20.26270250171582
rtibia 18.904506196986183
rfoot -13.022600574387976 -1.9388618009206369
rtoes 4.196014431264333
lowerback -4.740244840869655 -0.6955287768490703 0.8853228695233007
upperback 1.4968481319070617 -1.0561633949781206 1.7608047098773616
thorax 4.222643258936692 -0.5255482951177 1.2340043173275674
lowerneck -12.901099424483498 -0.35864864817059194 -2.4812730908575475
upperneck 3.9470954459891567 -0.15997231438308446 1.1516109590833368
head 3.5984051344281287 -0.0698067961422213 0.8161793356946164
lclavicle 1.8617363098471072e-16 -2.354835765916009e-15
lhumerus -23.13810176175032 -1.631260569725946 89.88879445599453
lradius 19.12840305215331
lwrist 2.5579530528388332
lhand -24.372299283488548 -3.0682632667460177
lfingers 7.12502
lthumb 2.1178107164725875 26.900986795374802
rclavicle 1.8617363098471072e-16 -2.354835765916009e-15
rhumerus -25.274899591230202 -20.703695414188687 -79.4266983361425
rradius 24.865500243481055
rwrist 33.59460625185162
rhand -16.908410049295334 -27.255088354107386
rfingers 7.12502
rthumb 9.32376001332927 -57.02888916736214
11
root 0.4732982047713688 17.554299220719688 -13.887789473260414 5.4789626554381154 0.5863406078963287 -1.7670214021316875
lfemur -9.283414768092095 8.768874756869815 -17.331403277764256
ltibia 15.720807139992834
lfoot -10.789500124565178 2.658506726716185
ltoes -6.878215462515861
rfemur -10.706805130833265 -3.5650867779424438 20.178603029068277
rtibia 18.9246062316757
rfoot -13.021100571891889 -1.966181695567418
rtoes 4.02483474852801
lowerback -4.725074417182139 -0.7036886572201877 0.8572063122652709
upperback 1.4579484099543416 -1.064063296767546 1.7592747349356483
thorax 4.1742533808209945 -0.5302052134247313 1.2478241251836333
lowerneck -12.79119977350474 -0.34378072914380897 -2.4815230800684516
upperneck 3.7518252849396614 -0.14066737242012817 1.1264210925658489
head 3.507375255967678 -0.0605935458811 0.8075634820404424
lclavicle 1.8617363666678296e-16 -2.3548357631178313e-15
lhumerus -23.177701678548786 -2.0307700287655863 90.00349427115144
lradius 19.281102936454793
lwrist 2.845852660320154
lhand -24.402799122445064 -3.015013447647763
lfingers 7.12502
lthumb 2.0883608845532264 26.954486428960962
rclavicle 1.8617363666678296e-16 -2.3548357631178313e-15
rhumerus -25.28849956157146 -20.524295715664756 -79.55209813080606
rradius 24.9469000812059
rwrist 33.445006614350575
rhand -16.991409850911626 -27.148889287783767
rfingers 7.12502
rthumb 9.243640179661611 -56.92628989037591
12
root 0.4862437864717758 17.55409923283604 -13.893289072492994 5.472342961634833 0.5459127171816502 -1.7813612600088438
lfemur -9.315004619647073 8.795034651378801 -17.36780306910827
ltibia 15.764207145314128
lfoot -10.823000096858525 2.601296827419386
ltoes -6.7665053746070924
rfemur -10.716805809849332 -3.4455374131608028 20.14400324274866
rtibia 18.911307107715707
rfoot -12.980900636473423 -2.0406515548199855
rtoes 3.9867247681067957
lowerback -4.7100046821474155 -0.7073355955590558 0.846224485287601
upperback 1.444558490401533 -1.0690632405100224 1.7942241948095403
thorax 4.152843148840203 -0.5334711447061377 1.2899335157367813
lowerneck -12.840999618200717 -0.30717993948388855 -2.466713233508017
upperneck 3.658345187210279 -0.08787946274864744 1.0575714267158631
head 3.4826354664899206 -0.03678440880915679 0.7853298594061944
lclavicle 1.861736416000586e-16 -2.354835782145397e-15
lhumerus -23.204101623081097 -2.2415197397124706 90.10649404762478
lradius 19.452302517454168
lwrist 2.969122693707765
lhand -24.40729909984729 -2.989263585930905
lfingers 7.12502
lthumb 2.0840309036930513 26.980286381678
rclavicle 1.861736416000586e-16 -2.354835782145397e-15
rhumerus -25.202499678941663 -20.62789553561588 -79.57949809760848
rradius 24.868500231551337
rwrist 33.59070658732468
rhand -16.957110003767074 -27.165189174616742
rfingers 7.12502
rthumb 9.276719944341195 -56.94108974918513
13
root 0.49868342651680797 17.553599226659394 -13.89888983492216 5.45533274826157 0.48529701524724733 -1.7915911526244115
lfemur -9.325944983337747 8.799394654933302 -17.40500287765571
ltibia 15.791507027126567
lfoot -10.822600091214431 2.6018669117454154
ltoes -6.779215541701205
rfemur -10.734705188986824 -3.3178080716606586 20.107503474514516
rtibia 18.933207214224645
rfoot -12.957300614244934 -2.1038414451462337
rtoes 3.9848948890862426
lowerback -4.660554620155969 -0.7123855079988825 0.825288813376766
upperback 1.4388885428485112 -1.0750331973470333 1.835763545751595
thorax 4.12033328046795 -0.5375920661399989 1.3447027168810657
lowerneck -12.911599390423378 -0.2800530824370777 -2.4588433210878122
upperneck 3.5931355416441146 -0.04584199558353097 0.983795812106776
head 3.472195503179913 -0.018764842322385733 0.7622262526348165
lclavicle 1.8617364014650714e-16 -2.354835786062859e-15
lhumerus -23.17360177647519 -2.409789514004775 90.19869385068064
lradius 19.50880244767127
lwrist 3.0859125187093253
lhand -24.437498930853362 -2.936223702562389
lfingers 7.12502
lthumb 2.054831062252693 27.033586143523785
rclavicle 1.8617364014650714e-16 -2.354835786062859e-15
rhumerus -25.183899698451036 -20.5007957023032 -79.62609800671748
rradius 24.868800229401344
rwrist 33.54780664858311
rhand -16.92921014435977 -27.20538885912018
rfingers 7.12502
rthumb 9.303699966926768 -56.980089413064626
14
root 0.5120790354629385 17.551899244557493 -13.904889119034847 5.408342744869282 0.4425572043263084 -1.7576614892811866
lfemur -9.288464644519339 8.797774554717806 -17.489402370626202
ltibia 15.795706622525444
lfoot -10.822500089803407 2.596246876554636
ltoes -6.7448755294164
rfemur -10.73640604675411 -3.270118337108255 20.019704054312836
rtibia 18.9967069344428
rfoot -12.976000611276271 -2.1275714718610166
rtoes 3.93259484681767
lowerback -4.558124426590329 -0.7229173227263783 0.8031841643543092
upperback 1.4372585418003063 -1.0860930715068378 1.847543366833827
thorax 4.061543324333493 -0.5438829376387145 1.3695423638802087
lowerneck -12.987299158579063 -0.25494518912609476 -2.43438356871678
upperneck 3.5405258029018425 -0.008917281068697935 0.9070001931164595
head 3.4672354360586257 -0.003208854885900836 0.7349007178256675
lclavicle 1.8617363759177357e-16 -2.354835768154551e-15
lhumerus -23.09440182379545 -2.476829441657869 90.2318938289474
lradius 19.44640253246012
lwrist 3.1003924463264463
lhand -24.40469910659914 -2.8787941063707496
lfingers 7.12502
lthumb 2.0865008885353507 27.090785973700036
rclavicle 1.8617363759177357e-16 -2.354835768154551e-15
rhumerus -25.228699642858285 -20.273696168604367 -79.68429785890913
rradius 24.91650014116325
rwrist 33.36610681329729
rhand -16.92301001569934 -27.255188430997293
rfingers 7.12502
rthumb 9.309669979005001 -57.02958918499403
15
root 0.524177685349256 17.549899256318437 -13.911089196765 5.358342857221868 0.38622341530042914 -1.7662614038577913
lfemur -9.30263494147221 8.819454475824632 -17.523902173291653
ltibia 15.900307190938273
lfoot -10.85490006129313 2.6013968227930775
ltoes -6.758705356508148
rfemur -10.736705585258303 -3.2102586633819508 19.980304281690227
rtibia 19.04430640390308
rfoot -12.98040062346763 -2.128701420599009
rtoes 3.917264860334557
lowerback -4.482944311679907 -0.7199213860615001 0.8293477503742873
upperback 1.463568373292957 -1.0833531312393907 1.8632231067739304
thorax 4.0460933851811 -0.5421449624103358 1.3720423318695223
lowerneck -13.029499020790617 -0.23972325973675557 -2.406843867549021
upperneck 3.4372458518773295 0.012724354392128268 0.8393195163500384
head 3.438275524826612 0.005518618286566523 0.7085871661475323
lclavicle 1.8617363534537406e-16 -2.354835753604042e-15
lhumerus -23.005901979967568 -2.467779433009549 90.229594067044
lradius 19.39960271719538
lwrist 3.0211625331746883
lhand -24.350199390528317 -2.8394141132934436
lfingers 7.12502
lthumb 2.1391906083147885 27.12958570341456
rclavicle 1.8617363534537406e-16 -2.354835753604042e-15
rhumerus -25.259499617796596 -20.20129628021291 -79.68889792430556
rradius 24.90630016162681
rwrist 33.331006929398654
rhand -16.872410230705267 -27.259688300140603
rfingers 7.12502
rthumb 9.358409563300196 -57.03188915353968
16
root 0.5355893298000156 17.547099267921425 -13.917090013653391 5.297932866950866 0.3409516220548765 -1.8119809503195077
lfemur -9.339735003959962 8.833804442148251 -17.51270224552112
ltibia 16.06520661505735
lfoot -10.899900019242581 2.6163167967238214
ltoes -6.819975254363712
rfemur -10.70990600552232 -3.173038846039639 19.988004272381687
rtibia 19.057606678804135
rfoot -12.957300614244934 -2.138961423030253
rtoes 3.785644812177944
lowerback -4.41466472577425 -0.7191143838103853 0.8958517043810368
upperback 1.4995481244717168 -1.0863030875583037 1.8795928526813026
thorax 4.043963495262031 -0.5422079653004745 1.3520626115197079
lowerneck -12.958699238313823 -0.22152739552566025 -2.3658442845789733
upperneck 3.264565862604144 0.031811974122329945 0.7899177932205153
head 3.3631157109179357 0.014359694709649928 0.6849415683047158
lclavicle 1.8617364679761973e-16 -2.3548357480077276e-15
lhumerus -22.989201925742975 -2.4503294717646122 90.21149396913384
lradius 19.43480259481585
lwrist 3.0113924645650463
lhand -24.362799320161834 -2.8741638872799222
lfingers 7.12502
lthumb 2.1270106757110687 27.094985984872284
rclavicle 1.8617364679761973e-16 -2.3548357480077276e-15
rhumerus -25.311199536629733 -20.254796185279147 -79.64659792355822
rradius 24.86040025132028
rwrist 33.4386066065712
rhand -16.86421043192967 -27.263788330102873
rfingers 7.12502
rthumb 9.366359738216339 -57.035689115174094
